<?xml version="1.0" standalone="no"?>
<!DOCTYPE svg PUBLIC "-//W3C//DTD SVG 20010904//EN"
 "http://www.w3.org/TR/2001/REC-SVG-20010904/DTD/svg10.dtd">
<svg version="1.0" xmlns="http://www.w3.org/2000/svg"
 width="131.000000pt" height="184.000000pt" viewBox="0 0 131.000000 184.000000"
 preserveAspectRatio="xMidYMid meet">

<g transform="translate(0.000000,184.000000) scale(0.100000,-0.100000)"
fill="#000000" stroke="none">
<path d="M871 1775 c-21 -38 -47 -65 -81 -87 -65 -43 -64 -57 2 -21 32 17 66
47 87 75 l35 46 24 -37 c27 -42 115 -107 131 -96 19 11 12 24 -26 44 -56 28
-123 90 -123 112 0 33 -17 21 -49 -36z"/>
<path d="M850 1691 c0 -17 19 -22 55 -15 50 9 44 24 -10 24 -25 0 -45 -4 -45
-9z"/>
<path d="M840 1655 c0 0 7 -18 14 -40 13 -38 36 -60 36 -35 0 9 11 11 34 7 31
-5 34 -3 40 25 8 42 8 48 -4 48 -6 0 -15 -11 -20 -25 -5 -14 -14 -25 -19 -25
-5 0 -16 -3 -25 -6 -12 -4 -16 0 -16 15 0 14 6 21 19 21 11 0 22 4 25 8 3 5
-15 8 -39 8 -25 -1 -45 -1 -45 -1z"/>
<path d="M846 1494 c4 -15 0 -35 -11 -52 -15 -24 -13 -24 14 6 36 38 39 58 11
65 -17 4 -19 1 -14 -19z"/>
<path d="M307 1462 c-33 -18 -49 -34 -53 -51 -3 -14 -8 -35 -10 -46 -2 -11 6
-1 18 22 13 25 33 47 50 54 16 6 33 20 39 30 5 11 8 18 7 18 -2 -1 -24 -13
-51 -27z"/>
<path d="M908 1474 c-16 -8 -28 -17 -28 -20 0 -2 12 -1 28 2 38 9 23 -3 -23
-19 -24 -9 -33 -16 -24 -19 25 -10 84 16 81 35 -2 9 2 17 8 17 5 0 10 5 10 10
0 14 -20 12 -52 -6z"/>
<path d="M970 1433 c0 -5 -34 -20 -75 -33 -51 -16 -71 -26 -62 -32 8 -4 36 -1
63 7 64 19 61 20 56 -20 -2 -19 -8 -35 -12 -35 -5 0 -15 -3 -24 -6 -9 -3 -16
-1 -16 5 0 6 9 11 20 11 11 0 20 5 20 11 0 5 -8 9 -17 7 -10 -1 -24 1 -30 5
-9 6 -13 0 -13 -21 0 -24 -6 -32 -30 -41 -38 -13 -39 -25 -1 -16 21 4 30 2 34
-9 4 -9 1 -16 -5 -16 -7 0 -6 -5 2 -15 17 -20 31 -9 24 19 -4 19 0 27 25 39
29 14 31 14 31 -3 0 -20 44 -60 66 -60 7 0 18 9 24 19 15 30 12 36 -9 17 -18
-16 -20 -16 -36 0 -14 14 -16 32 -13 92 2 54 -1 76 -9 79 -7 3 -13 1 -13 -4z"/>
<path d="M460 1379 c-7 -11 -9 -23 -6 -27 3 -3 6 0 6 7 0 7 10 11 23 9 27 -4
30 -30 4 -34 -24 -3 -35 -16 -19 -21 19 -7 14 -28 -15 -58 l-28 -28 28 7 c20
5 29 2 34 -9 3 -9 12 -14 19 -11 11 4 11 1 -1 -17 -10 -16 -23 -22 -42 -21
-43 2 -44 3 -42 22 3 31 -1 38 -20 39 -11 1 -23 -8 -30 -23 -11 -25 -26 -31
-35 -15 -9 14 -45 1 -40 -14 10 -24 -15 -26 -38 -3 -13 13 -24 26 -24 31 -1 4
-2 12 -3 18 -1 8 -6 8 -16 -1 -18 -15 -20 -37 -3 -42 7 -3 5 -13 -8 -33 l-18
-28 21 12 c27 14 36 14 27 0 -3 -6 -22 -18 -41 -26 -40 -16 -39 -29 1 -14 33
13 35 -3 3 -30 -18 -15 -19 -18 -5 -19 9 0 24 7 32 16 15 14 16 13 16 -14 l0
-29 -47 10 c-35 9 -48 8 -51 -1 -7 -22 -22 -12 -22 15 0 26 -1 26 -14 7 -14
-18 -15 -18 -25 9 -8 20 -8 34 0 49 6 11 9 22 6 24 -2 3 -10 -9 -16 -25 -10
-23 -10 -34 -1 -52 10 -18 9 -23 -5 -32 -15 -8 -13 -13 17 -45 18 -19 28 -32
22 -29 -13 7 -55 -86 -75 -163 -17 -67 -14 -225 5 -299 59 -223 237 -401 458
-457 92 -24 230 -22 299 5 261 100 367 395 226 630 -57 95 -169 177 -267 195
l-35 7 32 -17 c163 -83 170 -310 14 -402 -40 -24 -57 -27 -131 -27 -79 0 -91
3 -165 39 -60 30 -92 53 -128 94 -84 98 -126 225 -113 336 7 49 10 55 38 65
17 6 34 9 38 6 9 -6 17 -56 29 -190 5 -55 15 -118 22 -140 13 -35 18 -40 42
-37 21 3 27 -1 27 -16 0 -11 4 -22 10 -24 6 -2 4 -14 -5 -30 -16 -32 -9 -35
22 -9 19 16 22 25 16 69 -5 44 -3 51 13 54 31 7 54 -3 54 -22 0 -10 7 -21 16
-24 21 -8 44 49 56 142 8 59 7 86 -6 137 -9 35 -16 79 -16 97 0 23 -7 37 -21
46 -19 12 -20 15 -5 37 18 28 20 39 6 30 -5 -3 -10 1 -10 9 0 19 11 21 28 4 9
-9 12 -7 12 11 0 18 -4 21 -20 16 -11 -3 -20 -2 -20 4 0 5 9 13 20 16 47 15
47 98 0 122 -22 11 -26 10 -38 -10 -13 -22 -13 -22 -6 3 4 14 13 29 20 33 9 5
14 25 14 51 0 41 -2 44 -31 50 -49 9 -57 8 -69 -15z m-130 -235 c0 -3 -9 -17
-20 -31 -11 -14 -17 -29 -14 -34 3 -5 0 -9 -5 -9 -17 0 -13 42 7 61 17 18 32
24 32 13z m46 -38 c23 -18 -1 -16 -31 2 -15 8 -16 11 -4 12 8 0 24 -6 35 -14z
m-206 -86 c0 -5 -4 -10 -10 -10 -5 0 -10 5 -10 10 0 6 5 10 10 10 6 0 10 -4
10 -10z"/>
<path d="M226 1325 c-3 -9 -6 -26 -5 -38 1 -16 4 -12 10 12 10 34 6 55 -5 26z"/>
<path d="M843 1323 c9 -9 20 -13 24 -9 4 4 1 11 -7 16 -25 16 -35 11 -17 -7z"/>
<path d="M360 1321 c0 -6 4 -13 10 -16 6 -3 7 1 4 9 -7 18 -14 21 -14 7z"/>
<path d="M81 1305 c0 -11 6 -33 14 -50 13 -29 13 -29 14 -5 0 14 -6 36 -14 50
-13 22 -14 23 -14 5z"/>
<path d="M922 1258 c3 -7 13 -15 24 -17 16 -3 17 -1 5 13 -16 19 -34 21 -29 4z"/>
<path d="M840 1250 c-8 -5 -11 -12 -7 -16 4 -4 13 -2 19 4 15 15 7 24 -12 12z"/>
<path d="M116 1222 c-2 -4 -1 -14 5 -22 7 -12 9 -10 9 8 0 23 -5 28 -14 14z"/>
<path d="M953 1143 c-7 -15 -11 -28 -9 -30 7 -7 56 39 51 48 -11 17 -30 9 -42
-18z"/>
<path d="M880 1135 c0 -8 2 -15 4 -15 2 0 11 -3 20 -6 23 -9 20 9 -4 24 -17
10 -20 10 -20 -3z"/>
<path d="M800 1096 c0 -25 4 -36 15 -36 9 0 15 9 15 24 0 13 -7 29 -15 36 -13
11 -15 7 -15 -24z"/>
<path d="M940 1099 c-14 -6 -35 -8 -48 -6 -14 3 -21 0 -19 -7 2 -6 13 -12 25
-14 12 -2 20 -8 17 -13 -12 -18 21 -9 38 11 9 11 26 20 37 20 11 0 20 5 20 10
0 13 -37 12 -70 -1z"/>
<path d="M950 1045 c-34 -13 -34 -14 -7 -14 25 -1 27 -4 27 -40 0 -26 -5 -41
-16 -45 -27 -10 -44 -7 -44 9 0 9 9 15 25 15 14 0 25 5 25 10 0 6 -11 8 -25 4
-20 -5 -25 -2 -25 14 0 11 -6 25 -14 31 -12 10 -14 4 -14 -43 1 -63 16 -75 83
-68 l40 4 0 69 c0 74 -1 75 -55 54z"/>
<path d="M790 1026 c-7 -9 -17 -13 -22 -10 -5 4 -8 -4 -6 -17 2 -15 9 -23 18
-22 8 2 21 -6 28 -18 15 -24 7 -59 -14 -59 -8 0 -14 -7 -14 -15 0 -13 9 -15
59 -9 33 3 81 1 111 -5 47 -10 56 -9 86 10 19 11 34 22 34 24 0 2 -21 -2 -47
-9 -36 -10 -65 -10 -115 -3 -67 10 -68 11 -68 41 0 75 -5 101 -21 104 -9 1
-22 -4 -29 -12z"/>
<path d="M930 1010 c-12 -8 -11 -10 8 -10 12 0 22 5 22 10 0 13 -11 13 -30 0z"/>
<path d="M561 554 c0 -11 3 -14 6 -6 3 7 2 16 -1 19 -3 4 -6 -2 -5 -13z"/>
<path d="M560 520 c0 -5 5 -10 10 -10 6 0 10 5 10 10 0 6 -4 10 -10 10 -5 0
-10 -4 -10 -10z"/>
</g>
</svg>
